<svg viewBox="0 0 351.127 367.792" fill="none" xmlns="http://www.w3.org/2000/svg">
<g id="Group 4">
<path id="Vector" d="M172.938 0.0090968C179.844 -0.60948 271.367 30.5113 283.989 34.6475C305.149 61.9932 331.169 98.6783 351.109 127.25L351.127 240.557C331.243 270.128 305.359 303.84 284.135 333.006C273.308 337.171 258.552 341.504 247.306 345.149L178.011 367.784C170.267 368.35 80.6839 337.763 66.7788 332.987L0 240.896L0.037059 126.841C6.0613 117.627 15.6307 105.221 22.3324 95.9912L66.889 34.7539C98.3595 22.8452 139.92 11.1216 172.938 0.0090968Z" fill="var(--fill-0, black)"/>
<path id="Vector_2" d="M174.931 76.7715C178.461 78.1464 201.343 95.1806 205.774 98.4046L277.766 150.821C264.241 188.231 251.113 232.488 238.556 270.804L176.845 270.801L112.409 270.799L73.2241 150.76L174.931 76.7715Z" fill="var(--fill-0, white)"/>
<path id="Vector_3" d="M168.78 17.1875L169.397 17.3623C171.45 19.9526 170.556 60.9345 170.542 67.5098L66.3177 143.205C56.6571 139.566 43.6461 135.727 33.6082 132.464L18.0288 127.413L76.2026 47.3363L168.78 17.1875Z" fill="var(--fill-0, white)"/>
<path id="Vector_4" d="M111.291 280.867L239.559 280.874C249.617 294.582 259.606 308.341 269.525 322.149L225.464 336.536C209.458 341.225 191.551 347.504 175.51 352.701L81.4023 322.179L111.291 280.867Z" fill="var(--fill-0, white)"/>
<path id="Vector_5" d="M14.8213 137.148C29.555 141.205 48.5219 148.022 63.4038 152.865C75.6015 193.064 89.9276 234.894 102.961 274.974L85.6631 298.868L73.1623 316.119L14.8298 235.839L14.8213 137.148Z" fill="var(--fill-0, white)"/>
<path id="Vector_6" d="M333.683 137.826L335.358 137.914C336.756 141.04 336.066 225.761 336.071 236.162C316.505 262.211 297.03 289.745 277.813 316.163L266.448 300.359L247.957 274.864C261.583 235.11 274.777 192.933 287.596 152.806L333.683 137.826Z" fill="var(--fill-0, white)"/>
<path id="Vector_7" d="M180.667 16.6436L274.835 47.3928C293.576 73.9584 313.738 101.168 332.985 127.384L321.171 131.202C308.931 135.075 296.737 139.089 284.592 143.245C252.679 118.533 213.721 91.5627 180.643 67.6966L180.667 16.6436Z" fill="var(--fill-0, white)"/>
</g>
</svg>
