<svg viewBox="0 0 334.936 384.395" fill="none" xmlns="http://www.w3.org/2000/svg">
<g id="Group 1">
<path id="Vector" d="M165.322 0.00265967C171.572 -0.211799 191.52 12.6042 197.998 16.3413L247.176 44.7337L302.244 76.5661C312.381 82.4316 325.075 89.3462 334.556 95.7572C335.256 106.75 334.774 123.604 334.78 134.994L334.798 207.434L334.799 257.092C334.799 265.709 335.243 279.049 333.985 287.189C328.75 295.052 189.662 372.792 169.752 384.274C169.192 384.314 168.633 384.406 168.071 384.394C163.516 384.303 10.24 296.342 0.734268 287.615C-0.32805 282.338 0.0548375 237.999 0.122301 229.335C0.469123 185.064 -0.411669 140.07 0.328533 95.8721C8.2047 89.8127 41.6459 71.4502 52.5465 65.1628L165.322 0.00265967Z" fill="var(--fill-0, black)"/>
<path id="Vector_2" d="M167.379 93.7988C172.155 99.9808 188.868 130.412 193.822 138.993L253.09 241.552L167.86 241.554L82.1338 241.535C91.2329 224.517 102.918 205.289 112.675 188.371L167.379 93.7988Z" fill="var(--fill-0, white)"/>
<path id="Vector_3" d="M156.954 89.9629C157.039 92.7546 83.56 218.586 73.9535 235.173L58.4007 197.075C54.5856 189.14 49.4755 175.548 45.9541 166.976L21.8105 107.856C62.9597 104.262 114.802 94.9562 156.954 89.9629Z" fill="var(--fill-0, white)"/>
<path id="Vector_4" d="M177.452 89.7803C222.301 94.9892 268.277 102.349 313.313 107.927L277.107 196.114L261.067 235.218L206.377 140.61C197.695 125.587 184.944 104.955 177.452 89.7803Z" fill="var(--fill-0, white)"/>
<path id="Vector_5" d="M83.6216 251.785L251.229 251.783C236.917 271.815 218.64 294.296 203.386 314.018L167.51 360.398L83.6216 251.785Z" fill="var(--fill-0, white)"/>
<path id="Vector_6" d="M14.6916 119.585C18.422 123.399 61.7396 232.05 66.8146 244.491L49.0402 254.727L14.6821 274.639L14.6916 119.585Z" fill="var(--fill-0, white)"/>
<path id="Vector_7" d="M319.684 119.537C320.878 123.558 320.422 158.469 320.42 165.253L320.341 274.543L287.966 255.911L268.235 244.663C270.295 238.888 273.019 232.213 275.474 226.579C290.777 191.46 303.759 154.285 319.684 119.537Z" fill="var(--fill-0, white)"/>
<path id="Vector_8" d="M161.618 19.292C163.369 22.0468 162.561 71.7311 162.542 78.8366C121.508 85.7788 71.7678 91.1996 29.9544 96.7944L29.6465 96.6889L29.4917 95.7482C42.8068 87.1765 61.2501 77.2023 75.2531 69.1209L161.618 19.292Z" fill="var(--fill-0, white)"/>
<path id="Vector_9" d="M262.891 253.369C266.405 254.779 276.973 261.151 280.631 263.27L315.42 283.319C283.153 300.526 245.049 323.753 212.902 342.321C202 348.711 191.022 354.972 179.972 361.104C203.979 327.325 237.102 286.838 262.891 253.369Z" fill="var(--fill-0, white)"/>
<path id="Vector_10" d="M172.57 18.8867C201.957 35.027 231.574 53.423 260.98 69.8206C267.165 73.2698 303.014 93.547 306.359 96.9259C262.051 91.4993 216.869 84.9382 172.569 78.914L172.57 18.8867Z" fill="var(--fill-0, white)"/>
<path id="Vector_11" d="M70.9986 253.795C74.0459 254.469 145.798 348.878 155.254 361.2C145.022 355.811 133.611 348.909 123.481 343.086L19.6206 283.251C36.4628 274.186 54.3255 263.411 70.9986 253.795Z" fill="var(--fill-0, white)"/>
</g>
</svg>
