<svg viewBox="0 0 334.737 383.446" fill="none" xmlns="http://www.w3.org/2000/svg">
<g id="Group 3">
<path id="Vector" d="M166.364 0C172.594 1.14954 199.267 17.528 206.349 21.6108L271.699 59.3383L309.678 81.2795C316.218 85.0508 326.879 90.7735 332.557 95.1876C335.311 107.324 335.517 276.089 332.824 287.912C327.205 292.687 283.943 317.373 275.459 322.037C240.362 341.293 203.595 364.955 168.515 383.446C162.664 382.629 139.174 368.104 132.549 364.284L72.5506 329.66L28.1004 303.976C20.5715 299.631 8.29311 292.945 1.76239 287.877C-0.750084 276.795 -0.526341 104.117 2.1152 95.5266C8.18989 90.4139 51.9346 65.4776 60.8917 60.5636C95.4296 41.6297 131.869 18.1397 166.364 0Z" fill="var(--fill-0, black)"/>
<path id="Vector_2" d="M167.207 17.2477C172.439 18.8162 199.25 35.4709 205.196 38.9092L313.344 101.334L168.205 185.193C161.58 184.143 38.9679 111.46 21.3977 101.296C37.3158 92.6917 54.645 82.2038 70.5028 73.0582L167.207 17.2477Z" fill="var(--fill-0, white)"/>
<path id="Vector_3" d="M16.2435 110.748C32.5316 119.475 50.3942 130.32 66.5188 139.626L162.096 194.813C162.113 250.707 162.595 307.332 161.967 363.175C145.232 354.321 125.45 342.18 108.818 332.586L16.1489 278.972L16.2435 110.748Z" fill="var(--fill-0, white)"/>
<path id="Vector_4" d="M317.637 111.175C319.255 112.909 318.584 266.28 318.593 279.041L174.211 362.477L173.626 362.047C172.086 359.13 172.8 210.662 172.8 194.692C220.529 168.346 270.141 138.558 317.637 111.175Z" fill="var(--fill-0, white)"/>
</g>
</svg>
